<svg width="1787" height="107" viewBox="0 0 1787 107" fill="none" xmlns="http://www.w3.org/2000/svg">
<path d="M239.5 83C216.649 83 198 64.3513 198 41.5C198 18.6487 216.649 0 239.5 0C262.351 0 281 18.6487 281 41.5C281 64.3513 262.351 83 239.5 83ZM239.5 16.5475C225.842 16.5475 214.548 27.5791 214.548 41.5C214.548 55.1582 225.842 66.4525 239.5 66.4525C253.158 66.4525 264.452 55.4209 264.452 41.5C264.452 27.8418 253.421 16.5475 239.5 16.5475Z" fill="#F9DD00"/>
<path d="M629.5 100C610.503 100 595 84.4968 595 65.5C595 46.5032 610.503 31 629.5 31C648.497 31 664 46.5032 664 65.5C664 84.4968 648.497 100 629.5 100ZM629.5 44.7563C618.146 44.7563 608.756 53.9272 608.756 65.5C608.756 76.8544 618.146 86.2437 629.5 86.2437C640.854 86.2437 650.244 77.0728 650.244 65.5C650.244 54.1456 641.073 44.7563 629.5 44.7563Z" fill="#F9DD00"/>
<path d="M1043.5 67C1025.05 67 1010 51.9462 1010 33.5C1010 15.0538 1025.05 0 1043.5 0C1061.95 0 1077 15.0538 1077 33.5C1077 51.9462 1061.95 67 1043.5 67ZM1043.5 13.3576C1032.47 13.3576 1023.36 22.2626 1023.36 33.5C1023.36 44.5253 1032.47 53.6424 1043.5 53.6424C1054.53 53.6424 1063.64 44.7373 1063.64 33.5C1063.64 22.4747 1054.74 13.3576 1043.5 13.3576Z" fill="#F9DD00"/>
<path d="M1446.5 98C1428.6 98 1414 83.3956 1414 65.5C1414 47.6044 1428.6 33 1446.5 33C1464.4 33 1479 47.6044 1479 65.5C1479 83.3956 1464.4 98 1446.5 98ZM1446.5 45.9589C1435.8 45.9589 1426.96 54.5981 1426.96 65.5C1426.96 76.1962 1435.8 85.0411 1446.5 85.0411C1457.2 85.0411 1466.04 76.4019 1466.04 65.5C1466.04 54.8038 1457.4 45.9589 1446.5 45.9589Z" fill="#F9DD00"/>
<path d="M1787 42.0003L1753.94 35.118L1764.51 67.192L1787 42.0003ZM-31.9039 106.712C-30.4658 106.13 -28.6788 105.429 -26.5596 104.619L-28.6474 99.1551C-30.7928 99.9749 -32.6156 100.69 -34.0961 101.289L-31.9039 106.712ZM-15.5089 100.528C-12.1599 99.3196 -8.44017 98.0025 -4.37435 96.5931L-6.29016 91.0665C-10.3782 92.4835 -14.1209 93.8087 -17.4935 95.0252L-15.5089 100.528ZM6.78646 92.7899C10.3528 91.5945 14.111 90.3531 18.0497 89.0733L16.2421 83.5103C12.2862 84.7957 8.51089 86.0427 4.92752 87.2438L6.78646 92.7899ZM29.2696 85.4813C32.8993 84.3363 36.6525 83.1685 40.5224 81.9826L38.8086 76.39C34.9232 77.5806 31.1546 78.7532 27.5099 79.903L29.2696 85.4813ZM51.817 78.5711C55.5054 77.4731 59.2834 76.364 63.146 75.2474L61.5215 69.6282C57.6438 70.7492 53.851 71.8626 50.1481 72.9649L51.817 78.5711ZM74.5067 72.0114C78.2369 70.9647 82.0356 69.9143 85.8987 68.8631L84.3628 63.219C80.4846 64.2744 76.6711 65.3288 72.9264 66.3795L74.5067 72.0114ZM97.2914 65.8112C101.04 64.8228 104.842 63.8361 108.694 62.8533L107.248 57.1855C103.381 58.1722 99.5636 59.1629 95.8002 60.1551L97.2914 65.8112ZM120.131 59.9847C123.912 59.0525 127.737 58.126 131.601 57.2071L130.248 51.5165C126.368 52.4391 122.528 53.3694 118.731 54.3054L120.131 59.9847ZM143.104 54.5229C146.916 53.6506 150.761 52.7873 154.639 51.935L153.383 46.2221C149.489 47.0781 145.627 47.945 141.799 48.821L143.104 54.5229ZM166.155 49.4566C169.978 48.6517 173.828 47.8589 177.703 47.0797L176.549 41.3451C172.657 42.1279 168.79 42.9244 164.95 43.7328L166.155 49.4566ZM189.284 44.807C193.133 44.0704 197.003 43.3487 200.893 42.6433L199.85 36.8878C195.941 37.5966 192.051 38.3218 188.184 39.0619L189.284 44.807ZM212.504 40.5975C216.365 39.9373 220.242 39.2943 224.134 38.6703L223.208 32.8948C219.296 33.5221 215.398 34.1683 211.518 34.8319L212.504 40.5975ZM235.792 36.8648C239.674 36.2851 243.567 35.7254 247.471 35.1872L246.672 29.3927C242.746 29.934 238.831 30.4968 234.928 31.0796L235.792 36.8648ZM259.155 33.6451C263.05 33.1543 266.952 32.6861 270.86 32.2421L270.199 26.4302C266.268 26.877 262.342 27.348 258.423 27.8417L259.155 33.6451ZM282.582 30.985C286.491 30.5912 290.402 30.2228 294.314 29.8814L293.806 24.0542C289.867 24.398 285.93 24.7687 281.996 25.1651L282.582 30.985ZM306.062 28.9383C309.984 28.6514 313.904 28.3929 317.82 28.1643L317.479 22.3249C313.533 22.5552 309.585 22.8156 305.635 23.1046L306.062 28.9383ZM329.581 27.5687C333.51 27.4006 337.433 27.2641 341.348 27.1608L341.194 21.3135C337.246 21.4177 333.291 21.5553 329.331 21.7247L329.581 27.5687ZM353.128 26.9513C355.088 26.9336 357.045 26.9247 359 26.9247V21.0753C357.027 21.0753 355.052 21.0844 353.075 21.1022L353.128 26.9513ZM359 26.9247C360.954 26.9247 362.887 26.9334 364.8 26.9505L364.853 21.1014C362.922 21.0841 360.971 21.0753 359 21.0753V26.9247ZM376.177 27.1566C380.043 27.2629 383.826 27.4047 387.532 27.5799L387.809 21.7371C384.063 21.5601 380.241 21.4169 376.337 21.3095L376.177 27.1566ZM398.95 28.239C402.827 28.5041 406.619 28.8063 410.335 29.143L410.863 23.3175C407.104 22.977 403.269 22.6713 399.349 22.4033L398.95 28.239ZM421.682 30.3012C425.528 30.7384 429.295 31.2125 432.991 31.7199L433.787 25.9249C430.046 25.4114 426.234 24.9317 422.342 24.4893L421.682 30.3012ZM444.262 33.4001C448.07 34.0127 451.81 34.6595 455.492 35.3363L456.55 29.5834C452.826 28.899 449.044 28.2448 445.191 27.6251L444.262 33.4001ZM466.682 37.5146C470.444 38.2867 474.156 39.0875 477.834 39.9121L479.114 34.2046C475.405 33.3729 471.658 32.5646 467.858 31.7847L466.682 37.5146ZM488.957 42.4976C492.678 43.3905 496.375 44.3035 500.065 45.2314L501.491 39.5588C497.786 38.6267 494.067 37.7085 490.322 36.8098L488.957 42.4976ZM511.155 48.0636C514.841 49.0159 518.532 49.9775 522.245 50.9439L523.718 45.2832C520.007 44.3174 516.311 43.3542 512.619 42.4002L511.155 48.0636ZM533.349 53.8221C537.021 54.7672 540.727 55.7115 544.48 56.6499L545.899 50.9753C542.163 50.041 538.47 49.1001 534.807 48.1573L533.349 53.8221ZM555.646 59.3842C559.324 60.2635 563.056 61.133 566.853 61.9885L568.139 56.2821C564.369 55.4329 560.662 54.5692 557.007 53.6952L555.646 59.3842ZM578.101 64.434C581.792 65.2067 585.551 65.9633 589.387 66.7002L590.49 60.9559C586.687 60.2254 582.96 59.4752 579.299 58.7088L578.101 64.434ZM600.708 68.7739C604.416 69.4198 608.199 70.0457 612.064 70.6489L612.966 64.8695C609.136 64.2718 605.387 63.6515 601.712 63.0113L600.708 68.7739ZM623.455 72.3243C627.187 72.8399 630.995 73.3336 634.886 73.8031L635.587 67.9959C631.729 67.5304 627.954 67.041 624.255 66.53L623.455 72.3243ZM646.369 75.0912C650.112 75.4796 653.93 75.8457 657.828 76.1876L658.339 70.3606C654.472 70.0214 650.685 69.6583 646.973 69.2731L646.369 75.0912ZM669.251 77.1019C673.005 77.3741 676.832 77.6242 680.735 77.8508L681.074 72.0113C677.199 71.7863 673.4 71.5381 669.674 71.2679L669.251 77.1019ZM692.31 78.4425C696.048 78.6082 699.854 78.7527 703.731 78.8751L703.915 73.0286C700.063 72.9071 696.282 72.7635 692.569 72.5989L692.31 78.4425ZM715.216 79.1675C719.018 79.2415 722.886 79.2948 726.823 79.3263L726.87 73.4772C722.955 73.4458 719.11 73.3929 715.33 73.3193L715.216 79.1675ZM738.203 79.3565C741.993 79.3467 745.844 79.3173 749.759 79.2676L749.685 73.4187C745.789 73.4682 741.958 73.4975 738.188 73.5072L738.203 79.3565ZM761.215 79.0674C763.154 79.0244 765.109 78.9766 767.078 78.9238L766.922 73.0766C764.961 73.1291 763.016 73.1767 761.086 73.2195L761.215 79.0674ZM767.078 78.9238C769.084 78.8701 771.077 78.8119 773.056 78.7493L772.871 72.9029C770.901 72.9652 768.918 73.0231 766.922 73.0766L767.078 78.9238ZM784.775 78.3221C788.766 78.1572 792.701 77.9745 796.584 77.7749L796.283 71.9333C792.421 72.1319 788.505 72.3137 784.534 72.4778L784.775 78.3221ZM808.243 77.1161C812.238 76.8698 816.175 76.6057 820.057 76.325L819.635 70.4909C815.774 70.7701 811.857 71.0328 807.883 71.2779L808.243 77.1161ZM831.786 75.4135C835.727 75.0858 839.609 74.7411 843.436 74.3809L842.887 68.5573C839.082 68.9156 835.221 69.2583 831.301 69.5843L831.786 75.4135ZM855.22 73.2052C859.178 72.7879 863.076 72.3545 866.915 71.9064L866.236 66.0965C862.419 66.5421 858.543 66.9731 854.607 67.3881L855.22 73.2052ZM878.541 70.484C882.501 69.9773 886.398 69.4559 890.235 68.9218L889.429 63.1283C885.612 63.6595 881.736 64.1781 877.798 64.682L878.541 70.484ZM901.906 67.233C905.841 66.6423 909.713 66.0395 913.526 65.4269L912.598 59.6516C908.804 60.2612 904.952 60.8609 901.038 61.4486L901.906 67.233ZM925.107 63.5087C929.018 62.8419 932.867 62.1669 936.661 61.4862L935.628 55.7288C931.85 56.4067 928.017 57.0789 924.124 57.7425L925.107 63.5087ZM948.254 59.3592C952.163 58.6271 956.014 57.8919 959.813 57.1566L958.702 51.4139C954.913 52.1472 951.073 52.8802 947.177 53.6098L948.254 59.3592ZM971.347 54.8971C975.235 54.1277 979.071 53.3618 982.863 52.6034L981.715 46.8677C977.925 47.6259 974.093 48.3908 970.212 49.1591L971.347 54.8971ZM994.367 50.3027C998.239 49.5302 1002.07 48.7701 1005.87 48.0263L1004.74 42.286C1000.94 43.0317 997.099 43.7932 993.223 44.5664L994.367 50.3027ZM1017.37 45.8095C1021.23 45.0796 1025.06 44.3718 1028.88 43.6908L1027.85 37.9325C1024.01 38.6176 1020.16 39.329 1016.28 40.0619L1017.37 45.8095ZM1040.4 41.7107C1044.26 41.0764 1048.1 40.4747 1051.94 39.9104L1051.09 34.1231C1047.22 34.6928 1043.34 35.2997 1039.45 35.9389L1040.4 41.7107ZM1063.51 38.3298C1067.36 37.8446 1071.22 37.4017 1075.1 37.0061L1074.5 31.187C1070.58 31.5876 1066.67 32.0357 1062.78 32.5264L1063.51 38.3298ZM1086.71 35.9713C1090.55 35.6794 1094.43 35.4379 1098.33 35.2512L1098.05 29.4086C1094.09 29.5979 1090.16 29.8429 1086.26 30.1387L1086.71 35.9713ZM1109.97 34.8642C1113.81 34.7928 1117.69 34.7769 1121.62 34.8206L1121.68 28.9717C1117.7 28.9273 1113.76 28.9435 1109.86 29.0159L1109.97 34.8642ZM1133.25 35.1234C1137.08 35.2795 1140.95 35.4934 1144.88 35.7686L1145.29 29.9335C1141.31 29.6544 1137.38 29.4374 1133.49 29.2789L1133.25 35.1234ZM1156.5 36.7473C1160.31 37.1219 1164.17 37.5541 1168.1 38.047L1168.83 32.2432C1164.85 31.7439 1160.93 31.3059 1157.07 30.926L1156.5 36.7473ZM1179.68 39.6535C1183.45 40.2242 1187.28 40.8501 1191.16 41.5336L1192.18 35.7727C1188.24 35.0813 1184.37 34.4479 1180.56 33.8701L1179.68 39.6535ZM1202.6 43.6773C1204.52 44.0585 1206.45 44.4536 1208.4 44.8626L1209.6 39.138C1207.63 38.7247 1205.68 38.3256 1203.74 37.9402L1202.6 43.6773ZM1208.4 44.8626C1210.25 45.2509 1212.12 45.6338 1214.02 46.0116L1215.16 40.2752C1213.28 39.9012 1211.43 39.5221 1209.6 39.138L1208.4 44.8626ZM1225.56 48.2014C1229.31 48.8778 1233.13 49.5357 1237.02 50.1752L1237.97 44.4034C1234.1 43.7685 1230.31 43.1158 1226.6 42.4451L1225.56 48.2014ZM1248.52 51.9827C1252.33 52.5555 1256.2 53.112 1260.12 53.6525L1260.92 47.8579C1257.02 47.3205 1253.17 46.7674 1249.39 46.1983L1248.52 51.9827ZM1271.63 55.1727C1275.44 55.6548 1279.3 56.1228 1283.2 56.5766L1283.88 50.7665C1280 50.3148 1276.16 49.8492 1272.37 49.3697L1271.63 55.1727ZM1294.83 57.8759C1298.64 58.2837 1302.49 58.6788 1306.36 59.0613L1306.94 53.2402C1303.08 52.8593 1299.25 52.4658 1295.46 52.0598L1294.83 57.8759ZM1318 60.1622C1321.83 60.5095 1325.69 60.845 1329.58 61.1689L1330.06 55.3398C1326.19 55.017 1322.34 54.6827 1318.53 54.3367L1318 60.1622ZM1341.19 62.0963C1345.04 62.3906 1348.92 62.6739 1352.81 62.9461L1353.22 57.111C1349.34 56.8396 1345.48 56.5573 1341.64 56.264L1341.19 62.0963ZM1364.42 63.721C1368.28 63.9673 1372.16 64.203 1376.06 64.4284L1376.4 58.5888C1372.51 58.3641 1368.64 58.129 1364.79 57.8835L1364.42 63.721ZM1387.66 65.0661C1391.53 65.2681 1395.42 65.4602 1399.32 65.6424L1399.59 59.7994C1395.7 59.6177 1391.83 59.4262 1387.97 59.2247L1387.66 65.0661ZM1410.92 66.1543C1414.8 66.3151 1418.68 66.4664 1422.57 66.6081L1422.78 60.7626C1418.9 60.6213 1415.03 60.4704 1411.16 60.31L1410.92 66.1543ZM1434.19 67.0027C1438.07 67.1248 1441.95 67.2376 1445.83 67.3412L1445.99 61.4939C1442.11 61.3906 1438.24 61.2781 1434.37 61.1563L1434.19 67.0027ZM1457.46 67.6237C1461.34 67.7088 1465.22 67.7848 1469.1 67.8517L1469.2 62.0033C1465.33 61.9365 1461.46 61.8607 1457.59 61.7758L1457.46 67.6237ZM1480.74 68.0257C1484.62 68.0748 1488.5 68.115 1492.38 68.1462L1492.43 62.2971C1488.56 62.2659 1484.69 62.2259 1480.81 62.1768L1480.74 68.0257ZM1504.01 68.2135C1507.9 68.2271 1511.79 68.2318 1515.66 68.2276L1515.66 62.3783C1511.79 62.3825 1507.92 62.3778 1504.03 62.3642L1504.01 68.2135ZM1527.28 68.1885C1531.18 68.1664 1535.07 68.1354 1538.94 68.0954L1538.88 62.2464C1535.02 62.2863 1531.14 62.3172 1527.25 62.3393L1527.28 68.1885ZM1550.55 67.9487C1554.46 67.89 1558.35 67.8223 1562.22 67.7455L1562.11 61.8973C1558.24 61.9739 1554.36 62.0415 1550.46 62.1L1550.55 67.9487ZM1573.83 67.4873C1577.74 67.3906 1581.63 67.2847 1585.49 67.1696L1585.32 61.3229C1581.47 61.4377 1577.59 61.5433 1573.68 61.6397L1573.83 67.4873ZM1597.12 66.7932C1601.02 66.6565 1604.9 66.5103 1608.75 66.3547L1608.51 60.5101C1604.67 60.6653 1600.81 60.8111 1596.92 60.9475L1597.12 66.7932ZM1620.4 65.8498C1624.29 65.6702 1628.15 65.4806 1631.96 65.2814L1631.66 59.44C1627.85 59.6386 1624.01 59.8276 1620.13 60.0067L1620.4 65.8498ZM1643.66 64.633C1647.58 64.4033 1651.44 64.1631 1655.26 63.9125L1654.88 58.0757C1651.07 58.3254 1647.22 58.5648 1643.32 58.7937L1643.66 64.633ZM1666.86 63.1087C1670.81 62.8201 1674.7 62.5199 1678.53 62.2082L1678.06 56.3782C1674.24 56.6885 1670.37 56.9875 1666.44 57.275L1666.86 63.1087ZM1690.1 61.2144C1694.04 60.8585 1697.9 60.4897 1701.68 60.1083L1701.09 54.2885C1697.33 54.6678 1693.49 55.0347 1689.58 55.3889L1690.1 61.2144ZM1713.34 58.8637C1717.3 58.416 1721.17 57.9534 1724.93 57.4759L1724.19 51.6732C1720.46 52.147 1716.62 52.6065 1712.68 53.0513L1713.34 58.8637ZM1736.46 55.9168C1740.44 55.3441 1744.28 54.7529 1747.96 54.1433L1747.01 48.3724C1743.37 48.9747 1739.57 49.5598 1735.63 50.1271L1736.46 55.9168ZM1759.45 52.0874C1763.53 51.2969 1767.37 50.4789 1770.97 49.6337L1769.63 43.9398C1766.12 44.765 1762.35 45.5671 1758.34 46.345L1759.45 52.0874Z" fill="#F9DD00"/>
<path d="M239.5 63C227.661 63 218 53.3386 218 41.5C218 29.6614 227.661 20 239.5 20C251.339 20 261 29.6614 261 41.5C261 53.3386 251.339 63 239.5 63Z" fill="white"/>
<path d="M629.5 83C619.864 83 612 75.1361 612 65.5C612 55.8639 619.864 48 629.5 48C639.136 48 647 55.8639 647 65.5C647 75.1361 639.136 83 629.5 83Z" fill="white"/>
<path d="M1043.5 51C1033.86 51 1026 43.1361 1026 33.5C1026 23.8639 1033.86 16 1043.5 16C1053.14 16 1061 23.8639 1061 33.5C1061 43.1361 1053.14 51 1043.5 51Z" fill="white"/>
<path d="M1446.5 82C1436.86 82 1429 74.1361 1429 64.5C1429 54.8639 1436.86 47 1446.5 47C1456.14 47 1464 54.8639 1464 64.5C1464 74.1361 1456.14 82 1446.5 82Z" fill="white"/>
</svg>
